<svg width="13" height="12" viewBox="0 0 13 12" fill="none" xmlns="http://www.w3.org/2000/svg">
<path d="M9 4.5C9 3.8095 8.72 3.1845 8.268 2.7325C7.8155 2.28 7.1905 2 6.5 2C5.8095 2 5.1845 2.28 4.732 2.7325C4.28 3.1845 4 3.8095 4 4.5C4 5.1905 4.28 5.8155 4.732 6.2675C5.1845 6.72 5.8095 7 6.5 7C7.1905 7 7.8155 6.72 8.268 6.2675C8.50043 6.03563 8.68475 5.76012 8.81037 5.45679C8.93599 5.15347 9.00043 4.82831 9 4.5ZM3.5 9.5C3.5 10 4.625 10.5 6.5 10.5C8.259 10.5 9.5 10 9.5 9.5C9.5 8.5 8.323 7.5 6.5 7.5C4.625 7.5 3.5 8.5 3.5 9.5Z" fill="#1B2C5F"/>
</svg>
