<svg width="13" height="12" viewBox="0 0 13 12" fill="none" xmlns="http://www.w3.org/2000/svg">
<path d="M6.5 1.50195C6.30321 1.50195 6.10836 1.54071 5.92655 1.61602C5.74474 1.69133 5.57955 1.8017 5.4404 1.94085C5.30125 2.08 5.19087 2.2452 5.11557 2.427C5.04026 2.60881 5.0015 2.80367 5.0015 3.00045C5.0015 3.19724 5.04026 3.3921 5.11557 3.5739C5.19087 3.75571 5.30125 3.9209 5.4404 4.06005C5.57955 4.1992 5.74474 4.30958 5.92655 4.38489C6.10836 4.46019 6.30321 4.49895 6.5 4.49895C6.89743 4.49895 7.27858 4.34108 7.5596 4.06005C7.84062 3.77903 7.9985 3.39788 7.9985 3.00045C7.9985 2.60303 7.84062 2.22188 7.5596 1.94085C7.27858 1.65983 6.89743 1.50195 6.5 1.50195ZM9.875 2.25045C9.57663 2.25045 9.29048 2.36898 9.0795 2.57996C8.86853 2.79094 8.75 3.07708 8.75 3.37545C8.75 3.67382 8.86853 3.95997 9.0795 4.17095C9.29048 4.38193 9.57663 4.50045 9.875 4.50045C10.1734 4.50045 10.4595 4.38193 10.6705 4.17095C10.8815 3.95997 11 3.67382 11 3.37545C11 3.07708 10.8815 2.79094 10.6705 2.57996C10.4595 2.36898 10.1734 2.25045 9.875 2.25045ZM3.125 2.25045C2.82663 2.25045 2.54048 2.36898 2.3295 2.57996C2.11853 2.79094 2 3.07708 2 3.37545C2 3.67382 2.11853 3.95997 2.3295 4.17095C2.54048 4.38193 2.82663 4.50045 3.125 4.50045C3.42337 4.50045 3.70952 4.38193 3.9205 4.17095C4.13147 3.95997 4.25 3.67382 4.25 3.37545C4.25 3.07708 4.13147 2.79094 3.9205 2.57996C3.70952 2.36898 3.42337 2.25045 3.125 2.25045ZM4.25 5.9952C4.25139 5.7972 4.33102 5.60778 4.47152 5.46826C4.61202 5.32874 4.80199 5.25045 5 5.25045H8C8.19891 5.25045 8.38968 5.32947 8.53033 5.47012C8.67098 5.61078 8.75 5.80154 8.75 6.00045V8.25045C8.7502 8.48651 8.71325 8.72113 8.6405 8.9457C8.47443 9.45473 8.13233 9.88788 7.67564 10.1674C7.21894 10.4469 6.67756 10.5544 6.14872 10.4707C5.61988 10.3869 5.13821 10.1174 4.79021 9.71046C4.44221 9.30354 4.25068 8.78589 4.25 8.25045V5.9952ZM3.5 6.00045C3.5 5.7267 3.57275 5.47095 3.701 5.25045H2C1.80109 5.25045 1.61032 5.32947 1.46967 5.47012C1.32902 5.61078 1.25 5.80154 1.25 6.00045V7.87545C1.2499 8.18243 1.32517 8.48474 1.4692 8.75583C1.61324 9.02692 1.82163 9.2585 2.07608 9.43023C2.33053 9.60196 2.62325 9.70859 2.92854 9.74076C3.23383 9.77292 3.54235 9.72964 3.827 9.6147C3.61159 9.19196 3.49953 8.72416 3.5 8.2497V6.00045ZM9.5 6.00045V8.25045C9.5 8.7417 9.38225 9.2052 9.173 9.6147C9.45765 9.72964 9.76617 9.77292 10.0715 9.74076C10.3767 9.70859 10.6695 9.60196 10.9239 9.43023C11.1784 9.2585 11.3868 9.02692 11.5308 8.75583C11.6748 8.48474 11.7501 8.18243 11.75 7.87545V6.00045C11.75 5.80154 11.671 5.61078 11.5303 5.47012C11.3897 5.32947 11.1989 5.25045 11 5.25045H9.299C9.4265 5.47095 9.5 5.7267 9.5 6.00045Z" fill="#1B2C5F"/>
</svg>
